<svg width="320" height="400" viewBox="0 0 320 400" xmlns="http://www.w3.org/2000/svg" role="img" aria-labelledby="title desc">
  <title id="title">Portada JPG</title>
  <desc id="desc">Portada estilizada para representar una evidencia en formato JPG</desc>
  <defs>
    <linearGradient id="jpgGradient" x1="0%" y1="0%" x2="0%" y2="100%">
      <stop offset="0%" stop-color="#34d399" />
      <stop offset="100%" stop-color="#059669" />
    </linearGradient>
    <linearGradient id="jpgSun" x1="0" y1="0" x2="1" y2="1">
      <stop offset="0%" stop-color="#fef3c7" />
      <stop offset="100%" stop-color="#facc15" />
    </linearGradient>
  </defs>
  <rect x="0" y="0" width="320" height="400" fill="url(#jpgGradient)" rx="28" />
  <rect x="32" y="32" width="256" height="336" fill="rgba(255,255,255,0.12)" rx="20" stroke="rgba(255,255,255,0.45)" stroke-width="4" />
  <rect x="32" y="32" width="256" height="140" fill="rgba(255,255,255,0.92)" rx="20" />
  <text x="160" y="112" fill="#047857" font-size="96" font-family="'Inter', 'Segoe UI', sans-serif" font-weight="700" text-anchor="middle">JPG</text>
  <rect x="52" y="188" width="216" height="18" fill="rgba(255,255,255,0.45)" rx="9" />
  <rect x="52" y="218" width="196" height="14" fill="rgba(255,255,255,0.35)" rx="7" />
  <g transform="translate(52 246)">
    <rect width="216" height="110" fill="rgba(15,118,110,0.82)" rx="16" />
    <path d="M18 86l34-42 28 28 32-40 40 54" fill="none" stroke="#f8fafc" stroke-width="8" stroke-linecap="round" stroke-linejoin="round" opacity="0.85" />
    <circle cx="52" cy="34" r="14" fill="url(#jpgSun)" />
    <path d="M0 110h216" stroke="rgba(255,255,255,0.3)" stroke-width="6" stroke-linecap="round" />
  </g>
  <rect x="52" y="368" width="144" height="10" fill="rgba(255,255,255,0.22)" rx="5" />
</svg>