<svg xmlns="http://www.w3.org/2000/svg" width="128" height="128" viewBox="0 0 128 128" role="img" aria-labelledby="title-lumina">
  <title id="title-lumina">Avatar de Lumina Cooperativa</title>
  <defs>
    <linearGradient id="lumina-bg" x1="0" y1="0" x2="1" y2="1">
      <stop offset="0%" stop-color="#0ea5e9" />
      <stop offset="100%" stop-color="#0369a1" />
    </linearGradient>
    <linearGradient id="lumina-bolt" x1="0" y1="0" x2="1" y2="1">
      <stop offset="0%" stop-color="#facc15" />
      <stop offset="100%" stop-color="#f97316" />
    </linearGradient>
  </defs>
  <rect width="128" height="128" rx="36" fill="url(#lumina-bg)" />
  <g fill="none" stroke="#0f172a" stroke-opacity="0.1" stroke-width="4">
    <circle cx="64" cy="64" r="40" />
    <circle cx="64" cy="64" r="52" />
  </g>
  <path d="M67.6 26c1.6 0 2.5 1.8 1.6 3.1L55.7 52h16.9c1.7 0 2.7 1.9 1.8 3.3L51 102c-1.3 2-4.4 0.9-4-1.5l5.2-30.5H37.4c-1.6 0-2.5-1.7-1.7-3.1L63.8 27.3c0.4-0.8 1.2-1.3 2.1-1.3z" fill="url(#lumina-bolt)" />
  <path d="M77 87c14.6 0 26.4-11.8 26.4-26.4 0-9.7-5.1-18.2-12.7-22.9" fill="none" stroke="#f8fafc" stroke-width="6" stroke-linecap="round" />
</svg>