<svg xmlns="http://www.w3.org/2000/svg" width="128" height="128" viewBox="0 0 128 128" role="img" aria-labelledby="title-sembrar">
  <title id="title-sembrar">Avatar de Sembrar Futuro</title>
  <defs>
    <linearGradient id="sembrar-bg" x1="0" y1="0" x2="1" y2="1">
      <stop offset="0%" stop-color="#22c55e" />
      <stop offset="100%" stop-color="#15803d" />
    </linearGradient>
    <linearGradient id="sembrar-leaf" x1="0" y1="0" x2="1" y2="1">
      <stop offset="0%" stop-color="#fef3c7" />
      <stop offset="100%" stop-color="#fde68a" />
    </linearGradient>
  </defs>
  <rect width="128" height="128" rx="36" fill="url(#sembrar-bg)" />
  <g fill="none" stroke="#052e16" stroke-opacity="0.16" stroke-width="4">
    <path d="M24 92c18-8 28-24 40-24s22 16 40 24" />
    <path d="M32 36c12 8 18 20 32 24 14-4 20-16 32-24" />
  </g>
  <g fill="url(#sembrar-leaf)" stroke="#166534" stroke-width="3" stroke-linecap="round" stroke-linejoin="round">
    <path d="M60 86c0-20-10-36-24-44-0.6-0.4-1.4 0.1-1.3 0.9C37.7 69.3 48 84 60 86z" />
    <path d="M68 86c0-18 8-32 22-41 0.7-0.4 1.6 0.1 1.5 0.9-2.3 25.4-12 38.7-23.5 40.1z" />
  </g>
  <circle cx="64" cy="96" r="8" fill="#166534" />
</svg>